<svg xmlns="http://www.w3.org/2000/svg" width="128" height="128" viewBox="0 0 128 128" role="img" aria-labelledby="titleDesc">
  <title id="titleDesc">Vchat app icon</title>
  <defs>
    <linearGradient id="g1" x1="0" x2="1" y1="0" y2="1">
      <stop offset="0" stop-color="#5EE7DF"/>
      <stop offset="0.5" stop-color="#3AB2FF"/>
      <stop offset="1" stop-color="#6A5CFF"/>
    </linearGradient>
    <filter id="f1" x="-20%" y="-20%" width="140%" height="140%">
      <feOffset in="SourceAlpha" dx="0" dy="4" result="off"/>
      <feGaussianBlur in="off" stdDeviation="6" result="blur"/>
      <feColorMatrix in="blur" type="matrix"
        values="0 0 0 0 0
                0 0 0 0 0
                0 0 0 0 0
                0 0 0 0.2" result="shadow"/>
      <feMerge>
        <feMergeNode in="shadow"/>
        <feMergeNode in="SourceGraphic"/>
      </feMerge>
    </filter>
    <clipPath id="bubbleClip">
      <path d="M16 32c0-13.255 10.745-24 24-24h48c13.255 0 24 10.745 24 24v36c0 13.255-10.745 24-24 24H72l-16 16V92H40c-13.255 0-24-10.745-24-24V32z"/>
    </clipPath>
  </defs>

  
  <g filter="url(#f1)">
    <path d="M16 32c0-13.255 10.745-24 24-24h48c13.255 0 24 10.745 24 24v36c0 13.255-10.745 24-24 24H72l-16 16V92H40c-13.255 0-24-10.745-24-24V32z"
          fill="url(#g1)"/>
  </g>

  <path d="M26 28c0-9.941 8.059-18 18-18h40c9.941 0 18 8.059 18 18v28c0 9.941-8.059 18-18 18H76l-12 12V86H44c-9.941 0-18-8.059-18-18V28z"
        fill="white" opacity="0.06" clip-path="url(#bubbleClip)"/>

  <rect x="28" y="34" width="72" height="56" rx="12" ry="12" fill="#ffffff" opacity="0.12"/>

  <g transform="translate(20,18) scale(1.1)">
    <path d="M56 44 L72 68 L92 28" fill="none" stroke="#fff" stroke-linecap="round" stroke-linejoin="round" stroke-width="8" opacity="0.98"/>
    <path d="M56 50 L72 74 L92 34" fill="none" stroke="rgba(255,255,255,0.18)" stroke-linecap="round" stroke-linejoin="round" stroke-width="8"/>
  </g>

  <g transform="translate(92,26)">
    <rect x="0" y="6" width="8" height="2" rx="1" ry="1" fill="#fff" opacity="0.9" transform="rotate(30 4 7)"/>
    <rect x="3" y="0" width="2" height="8" rx="1" ry="1" fill="#fff" opacity="0.9"/>
  </g>
</svg>